<svg xmlns="http://www.w3.org/2000/svg" width="800" height="1100" viewBox="0 0 800 1100">
  <defs>
    <radialGradient id="g0" cx="50%" cy="40%" r="70%">
      <stop offset="0%" stop-color="#111126"/>
      <stop offset="55%" stop-color="#070713"/>
      <stop offset="100%" stop-color="#05050d"/>
    </radialGradient>
    <linearGradient id="edge" x1="0" y1="0" x2="1" y2="1">
      <stop offset="0" stop-color="rgba(255,255,255,0.10)"/>
      <stop offset="0.5" stop-color="rgba(255,255,255,0.02)"/>
      <stop offset="1" stop-color="rgba(0,0,0,0.15)"/>
    </linearGradient>
    <filter id="glow" x="-40%" y="-40%" width="180%" height="180%">
      <feGaussianBlur stdDeviation="10" result="b"/>
      <feColorMatrix in="b" type="matrix"
        values="1 0 0 0 0
                0 1 0 0 0
                0 0 1 0 0
                0 0 0 0.7 0"/>
      <feMerge>
        <feMergeNode/>
        <feMergeNode in="SourceGraphic"/>
      </feMerge>
    </filter>
    <linearGradient id="rayR" x1="0" y1="0" x2="1" y2="0">
      <stop offset="0" stop-color="#ff2400" stop-opacity="0"/>
      <stop offset="1" stop-color="#ff2400" stop-opacity="0.75"/>
    </linearGradient>
    <linearGradient id="rayO" x1="0" y1="0" x2="1" y2="0">
      <stop offset="0" stop-color="#ff7f00" stop-opacity="0"/>
      <stop offset="1" stop-color="#ff7f00" stop-opacity="0.70"/>
    </linearGradient>
    <linearGradient id="rayY" x1="0" y1="0" x2="1" y2="0">
      <stop offset="0" stop-color="#ffd700" stop-opacity="0"/>
      <stop offset="1" stop-color="#ffd700" stop-opacity="0.65"/>
    </linearGradient>
    <linearGradient id="rayG" x1="0" y1="0" x2="1" y2="0">
      <stop offset="0" stop-color="#4caf50" stop-opacity="0"/>
      <stop offset="1" stop-color="#4caf50" stop-opacity="0.60"/>
    </linearGradient>
    <linearGradient id="rayB" x1="0" y1="0" x2="1" y2="0">
      <stop offset="0" stop-color="#1e90ff" stop-opacity="0"/>
      <stop offset="1" stop-color="#1e90ff" stop-opacity="0.62"/>
    </linearGradient>
    <linearGradient id="rayV" x1="0" y1="0" x2="1" y2="0">
      <stop offset="0" stop-color="#bf5fff" stop-opacity="0"/>
      <stop offset="1" stop-color="#bf5fff" stop-opacity="0.62"/>
    </linearGradient>
    <linearGradient id="rayP" x1="0" y1="0" x2="1" y2="0">
      <stop offset="0" stop-color="#ff1493" stop-opacity="0"/>
      <stop offset="1" stop-color="#ff1493" stop-opacity="0.60"/>
    </linearGradient>
    <pattern id="noise" width="140" height="140" patternUnits="userSpaceOnUse">
      <circle cx="20" cy="30" r="1.2" fill="rgba(255,255,255,0.06)"/>
      <circle cx="70" cy="18" r="0.9" fill="rgba(255,255,255,0.05)"/>
      <circle cx="115" cy="58" r="1.1" fill="rgba(255,255,255,0.04)"/>
      <circle cx="38" cy="95" r="0.9" fill="rgba(255,255,255,0.04)"/>
      <circle cx="96" cy="104" r="1.0" fill="rgba(255,255,255,0.05)"/>
      <circle cx="128" cy="126" r="0.8" fill="rgba(255,255,255,0.04)"/>
      <circle cx="10" cy="125" r="1.0" fill="rgba(255,255,255,0.03)"/>
    </pattern>
  </defs>

  <rect width="800" height="1100" fill="url(#g0)"/>
  <rect width="800" height="1100" fill="url(#noise)" opacity="0.55"/>

  <!-- faint border -->
  <rect x="40" y="40" width="720" height="1020" rx="40" fill="none" stroke="rgba(255,255,255,0.10)" stroke-width="2"/>
  <rect x="54" y="54" width="692" height="992" rx="34" fill="none" stroke="rgba(255,255,255,0.06)" stroke-width="1"/>

  <!-- prism -->
  <g filter="url(#glow)" opacity="0.95">
    <polygon points="400,290 285,520 515,520" fill="rgba(255,255,255,0.03)" stroke="rgba(255,255,255,0.35)" stroke-width="3"/>
    <line x1="220" y1="405" x2="330" y2="405" stroke="rgba(255,255,255,0.45)" stroke-width="4"/>
  </g>

  <!-- rays -->
  <g opacity="0.85">
    <path d="M515 520 C 610 545, 690 565, 770 575" stroke="url(#rayR)" stroke-width="10" fill="none"/>
    <path d="M515 520 C 610 565, 690 600, 770 630" stroke="url(#rayO)" stroke-width="9" fill="none"/>
    <path d="M515 520 C 610 590, 690 645, 770 690" stroke="url(#rayY)" stroke-width="8" fill="none"/>
    <path d="M515 520 C 610 615, 690 690, 770 750" stroke="url(#rayG)" stroke-width="7" fill="none"/>
    <path d="M515 520 C 610 640, 690 735, 770 810" stroke="url(#rayB)" stroke-width="7" fill="none"/>
    <path d="M515 520 C 610 665, 690 780, 770 870" stroke="url(#rayV)" stroke-width="7" fill="none"/>
    <path d="M515 520 C 610 690, 690 825, 770 935" stroke="url(#rayP)" stroke-width="6" fill="none"/>
  </g>

  <!-- subtle vignette -->
  <rect width="800" height="1100" fill="url(#edge)" opacity="0.55"/>
</svg>
